Encode_Exp_Lt_sup.ufo
<glyph name="ampersand" format="1">
  <advance width="551.04286633"/>
  <unicode hex="0026"/>
  <outline>
    <contour>
      <point x="551.04286633" y="19.6080553795" type="line"/>
      <point x="259.722535835" y="223.465314814" type="line" smooth="yes"/>
      <point x="171.53906972" y="285.42003751"/>
      <point x="152.489807275" y="316.221300851"/>
      <point x="152.489807275" y="365.832263799" type="curve" smooth="yes"/>
      <point x="152.489807275" y="434.782234332"/>
      <point x="194.674120276" y="475.370625459"/>
      <point x="299.182540679" y="475.370625459" type="curve" smooth="yes"/>
      <point x="336.474961537" y="475.370625459"/>
      <point x="368.378752252" y="470.697437564"/>
      <point x="395.203278864" y="462.879497734" type="curve"/>
      <point x="395.203278864" y="494.685296822" type="line"/>
      <point x="369.904014301" y="501.827236668"/>
      <point x="337.552013569" y="506.382800569"/>
      <point x="299.088854699" y="506.382800569" type="curve" smooth="yes"/>
      <point x="176.942528034" y="506.382800569"/>
      <point x="119.329680777" y="454.124621767"/>
      <point x="119.329680777" y="366.47919577" type="curve" smooth="yes"/>
      <point x="119.329680777" y="306.021813112"/>
      <point x="148.534101451" y="263.72719809"/>
      <point x="244.339159579" y="197.097259587" type="curve" smooth="yes"/>
      <point x="535.659490074" y="-6.75999984741" type="line"/>
    </contour>
    <contour>
      <point x="463.332548347" y="166.47513612" type="curve" smooth="yes"/>
      <point x="463.332548347" y="198.834579406"/>
      <point x="458.030864224" y="231.047330684"/>
      <point x="446.888969963" y="261.173270011" type="curve"/>
      <point x="416.796217467" y="261.173270011" type="line"/>
      <point x="427.938111728" y="231.047330684"/>
      <point x="434.542637881" y="197.541391434"/>
      <point x="434.542637881" y="166.974700112" type="curve" smooth="yes"/>
      <point x="434.542637881" y="71.5410782691"/>
      <point x="372.31221646" y="23.3402513171"/>
      <point x="258.106957787" y="23.3402513171" type="curve" smooth="yes"/>
      <point x="134.74338686" y="23.3402513171"/>
      <point x="90.2627558339" y="72.5692742678"/>
      <point x="90.2627558339" y="138.63948484" type="curve" smooth="yes"/>
      <point x="90.2627558339" y="191.542567701"/>
      <point x="117.577280481" y="230.161770872"/>
      <point x="178.536537948" y="254.350402344" type="curve"/>
      <point x="159.866737654" y="276.777377776" type="line"/>
      <point x="93.0989481244" y="249.502806367"/>
      <point x="57.1026293365" y="200.39005547"/>
      <point x="57.1026293365" y="135.37643294" type="curve" smooth="yes"/>
      <point x="57.1026293365" y="53.727126795"/>
      <point x="117.005054657" y="-6.08399986267"/>
      <point x="256.213691779" y="-6.08399986267" type="curve" smooth="yes"/>
      <point x="390.711068755" y="-6.08399986267"/>
      <point x="463.332548347" y="56.2262986986"/>
    </contour>
  </outline>
</glyph>
<glyph name="zero" format="1">
  <advance width="409.818969124"/>
  <unicode hex="0030"/>
  <outline>
    <contour>
      <point x="371.181918217" y="250.119994354" type="curve" smooth="yes"/>
      <point x="371.181918217" y="437.07725417"/>
      <point x="306.919386807" y="506.382800569"/>
      <point x="204.909484562" y="506.382800569" type="curve" smooth="yes"/>
      <point x="102.854424317" y="506.382800569"/>
      <point x="38.6370509068" y="437.07725417"/>
      <point x="38.6370509068" y="250.119994354" type="curve" smooth="yes"/>
      <point x="38.6370509068" y="63.1627345382"/>
      <point x="104.740950364" y="-6.14281186005"/>
      <point x="204.909484562" y="-6.14281186005" type="curve" smooth="yes"/>
      <point x="305.03286076" y="-6.14281186005"/>
      <point x="371.181918217" y="63.1627345382"/>
    </contour>
    <contour>
      <point x="71.6165454054" y="251.354370329" type="curve" smooth="yes"/>
      <point x="71.6165454054" y="423.730986586"/>
      <point x="124.807278669" y="475.017753475"/>
      <point x="204.909484562" y="475.017753475" type="curve" smooth="yes"/>
      <point x="285.011690455" y="475.017753475"/>
      <point x="338.202423718" y="423.730986586"/>
      <point x="338.202423718" y="248.88561838" type="curve" smooth="yes"/>
      <point x="338.202423718" y="76.5090021222"/>
      <point x="285.011690455" y="25.2222352334"/>
      <point x="204.909484562" y="25.2222352334" type="curve" smooth="yes"/>
      <point x="124.762120669" y="25.2222352334"/>
      <point x="71.6165454054" y="76.5090021222"/>
    </contour>
  </outline>
</glyph>
<glyph name="one" format="1">
  <advance width="409.818969124"/>
  <unicode hex="0031"/>
  <outline>
    <contour>
      <point x="242.767391281" y="0.0" type="line"/>
      <point x="242.767391281" y="501.650800675" type="line"/>
      <point x="221.078744966" y="501.650800675" type="line"/>
      <point x="73.5981056816" y="395.723631106" type="line"/>
      <point x="73.5981056816" y="358.156284185" type="line"/>
      <point x="221.078744966" y="462.849077779" type="line"/>
      <point x="210.639158816" y="471.69859346" type="line"/>
      <point x="210.639158816" y="0.0" type="line"/>
    </contour>
    <contour>
      <point x="373.068444263" y="0.0" type="line"/>
      <point x="373.068444263" y="30.6302351113" type="line"/>
      <point x="73.5981056816" y="30.6302351113" type="line"/>
      <point x="73.5981056816" y="0.0" type="line"/>
    </contour>
  </outline>
</glyph>
<glyph name="two" format="1">
  <advance width="409.818969124"/>
  <unicode hex="0032"/>
  <outline>
    <contour>
      <point x="373.3778103" y="0.0" type="line"/>
      <point x="373.3778103" y="30.571423114" type="line"/>
      <point x="83.8489716219" y="30.571423114" type="line"/>
      <point x="86.6770757013" y="19.6364474227" type="line"/>
      <point x="240.877495254" y="189.662611696" type="line" smooth="yes"/>
      <point x="312.137494892" y="268.606565961"/>
      <point x="337.749495472" y="313.957376937"/>
      <point x="337.749495472" y="372.798443623" type="curve" smooth="yes"/>
      <point x="337.749495472" y="463.765057546"/>
      <point x="279.420860181" y="506.382800569"/>
      <point x="173.759899918" y="506.382800569" type="curve" smooth="yes"/>
      <point x="122.671372758" y="506.382800569"/>
      <point x="77.3711577748" y="498.711552747"/>
      <point x="42.3231569813" y="486.102801026" type="curve"/>
      <point x="42.3231569813" y="454.297001938" type="line"/>
      <point x="81.6827358839" y="468.257753628"/>
      <point x="124.912422841" y="475.370625459"/>
      <point x="172.947055923" y="475.370625459" type="curve" smooth="yes"/>
      <point x="260.247581928" y="475.370625459"/>
      <point x="305.21821099" y="442.482550167"/>
      <point x="305.21821099" y="369.976143718" type="curve" smooth="yes"/>
      <point x="305.21821099" y="322.92181273"/>
      <point x="282.034632453" y="279.570609666"/>
      <point x="218.146844964" y="208.591963209" type="curve" smooth="yes"/>
      <point x="48.3891571186" y="19.4600114305" type="line"/>
      <point x="48.3891571186" y="0.0" type="line"/>
    </contour>
  </outline>
</glyph>
<glyph name="three" format="1">
  <advance width="409.818969124"/>
  <unicode hex="0033"/>
  <outline>
    <contour>
      <point x="368.972546211" y="137.140116892" type="curve" smooth="yes"/>
      <point x="368.972546211" y="210.471243244"/>
      <point x="318.200125048" y="256.174250233"/>
      <point x="225.062758886" y="264.521498039" type="curve"/>
      <point x="225.062758886" y="254.910806245" type="line"/>
      <point x="300.498862633" y="269.606369917"/>
      <point x="350.729387799" y="312.693932948"/>
      <point x="350.729387799" y="380.969255437" type="curve" smooth="yes"/>
      <point x="350.729387799" y="459.209493645"/>
      <point x="289.975700445" y="506.382800569"/>
      <point x="184.005374146" y="506.382800569" type="curve" smooth="yes"/>
      <point x="137.812109111" y="506.382800569"/>
      <point x="93.9502101578" y="500.063552716"/>
      <point x="53.0619992257" y="487.954364988" type="curve"/>
      <point x="53.0619992257" y="457.26599385" type="line"/>
      <point x="97.2298942346" y="470.727181547"/>
      <point x="140.549897191" y="476.370429415"/>
      <point x="182.383056137" y="476.370429415" type="curve" smooth="yes"/>
      <point x="270.354212176" y="476.370429415"/>
      <point x="318.514209315" y="440.337602188"/>
      <point x="318.514209315" y="379.293451497" type="curve" smooth="yes"/>
      <point x="318.514209315" y="306.199601045"/>
      <point x="258.677161879" y="272.077149777"/>
      <point x="148.873797315" y="272.077149777" type="curve" smooth="yes"/>
      <point x="117.714102729" y="272.077149777" type="line"/>
      <point x="117.714102729" y="242.005966626" type="line"/>
      <point x="192.044846349" y="242.005966626" type="line" smooth="yes"/>
      <point x="289.632634601" y="242.005966626"/>
      <point x="337.073473725" y="204.797575422"/>
      <point x="337.073473725" y="138.580672842" type="curve" smooth="yes"/>
      <point x="337.073473725" y="65.5747024012"/>
      <point x="285.543476509" y="23.8695592936"/>
      <point x="171.741269853" y="23.8695592936" type="curve" smooth="yes"/>
      <point x="129.095266912" y="23.8695592936"/>
      <point x="81.1927378484" y="31.4231831205"/>
      <point x="34.8673687945" y="45.8834988031" type="curve"/>
      <point x="34.8673687945" y="15.1951276647" type="line"/>
      <point x="77.0166337384" y="1.2931879721"/>
      <point x="126.67021485" y="-6.14281186005"/>
      <point x="171.115797819" y="-6.14281186005" type="curve" smooth="yes"/>
      <point x="307.141806825" y="-6.14281186005"/>
      <point x="368.972546211" y="48.4076828983"/>
    </contour>
  </outline>
</glyph>
<glyph name="four" format="1">
  <advance width="409.818969124"/>
  <unicode hex="0034"/>
  <outline>
    <contour>
      <point x="397.193600833" y="126.028029238" type="line"/>
      <point x="397.193600833" y="156.364204362" type="line"/>
      <point x="43.1730707653" y="156.364204362" type="line"/>
      <point x="49.6454929002" y="145.10610067" type="line"/>
      <point x="265.708329915" y="500.239988708" type="line"/>
      <point x="231.519679366" y="500.239988708" type="line"/>
      <point x="15.8147363683" y="145.723288658" type="line"/>
      <point x="15.8147363683" y="126.028029238" type="line"/>
    </contour>
    <contour>
      <point x="317.261916996" y="0.0" type="line"/>
      <point x="317.261916996" y="331.239992523" type="line"/>
      <point x="291.567688628" y="331.239992523" type="line"/>
      <point x="286.262634524" y="156.364204362" type="line"/>
      <point x="286.262634524" y="0.0" type="line"/>
    </contour>
  </outline>
</glyph>
<glyph name="five" format="1">
  <advance width="409.818969124"/>
  <unicode hex="0035"/>
  <outline>
    <contour>
      <point x="375.354652346" y="140.608672797" type="curve" smooth="yes"/>
      <point x="375.399810346" y="228.694850789"/>
      <point x="314.288228975" y="274.25184174"/>
      <point x="146.99401123" y="283.598217532" type="curve" smooth="yes"/>
      <point x="74.2855856201" y="287.65421744" type="line"/>
      <point x="97.1415999665" y="269.606369917" type="line"/>
      <point x="113.136968334" y="482.54501317" type="line"/>
      <point x="97.5729600791" y="470.609557553" type="line"/>
      <point x="353.696335858" y="470.609557553" type="line"/>
      <point x="353.696335858" y="500.239988708" type="line"/>
      <point x="83.8887379095" y="500.239988708" type="line"/>
      <point x="64.9264214827" y="257.759470281" type="line"/>
      <point x="138.263689108" y="253.703470373" type="line" smooth="yes"/>
      <point x="292.015898644" y="245.209530558"/>
      <point x="343.410421861" y="211.028267293"/>
      <point x="343.410421861" y="140.491048802" type="curve" smooth="yes"/>
      <point x="343.410421861" y="62.724010454"/>
      <point x="288.107372552" y="24.1048072831"/>
      <point x="178.078217989" y="24.1048072831" type="curve" smooth="yes"/>
      <point x="134.174531017" y="24.1048072831"/>
      <point x="86.2720019531" y="31.65843111"/>
      <point x="41.2043169303" y="46.1187467927" type="curve"/>
      <point x="41.2043169303" y="15.4303756543" type="line"/>
      <point x="82.0958978432" y="2.02799995422"/>
      <point x="131.749478954" y="-6.14281186005"/>
      <point x="177.452745954" y="-6.14281186005" type="curve" smooth="yes"/>
      <point x="308.041596839" y="-6.14281186005"/>
      <point x="375.309494346" y="45.3217429615"/>
    </contour>
  </outline>
</glyph>
<glyph name="six" format="1">
  <advance width="409.818969124"/>
  <unicode hex="0036"/>
  <outline>
    <contour>
      <point x="383.265390511" y="137.52273286" type="curve" smooth="yes"/>
      <point x="383.265390511" y="234.073782653"/>
      <point x="322.331071158" y="282.569345562"/>
      <point x="218.670542808" y="282.569345562" type="curve" smooth="yes"/>
      <point x="167.807805646" y="282.569345562"/>
      <point x="112.272226377" y="265.963405931"/>
      <point x="77.1372795651" y="238.83552653" type="curve"/>
      <point x="77.1372795651" y="207.354207383" type="line"/>
      <point x="113.665384407" y="239.125530695"/>
      <point x="172.248117793" y="252.909846393"/>
      <point x="215.290432789" y="252.909846393" type="curve" smooth="yes"/>
      <point x="304.1061109" y="252.909846393"/>
      <point x="351.682424023" y="215.084267202"/>
      <point x="351.682424023" y="136.611484885" type="curve" smooth="yes"/>
      <point x="351.682424023" y="59.0499505433"/>
      <point x="303.029058868" y="23.5166873093"/>
      <point x="230.69874716" y="23.5166873093" type="curve" smooth="yes"/>
      <point x="137.703594958" y="23.5166873093"/>
      <point x="84.2870716961" y="80.0052741"/>
      <point x="84.2870716961" y="231.66113882" type="curve" smooth="yes"/>
      <point x="84.2870716961" y="241.421902475" type="line" smooth="yes"/>
      <point x="84.2870716961" y="399.924971082"/>
      <point x="144.804859109" y="476.135181425"/>
      <point x="265.531067897" y="476.135181425" type="curve" smooth="yes"/>
      <point x="293.706964519" y="476.135181425"/>
      <point x="331.721913372" y="471.843933527"/>
      <point x="360.391178011" y="459.617121805" type="curve"/>
      <point x="360.391178011" y="490.540740933" type="line"/>
      <point x="332.079807389" y="502.267988663"/>
      <point x="296.806016597" y="506.382800569"/>
      <point x="264.134539886" y="506.382800569" type="curve" smooth="yes"/>
      <point x="126.399266851" y="506.382800569"/>
      <point x="51.9815772128" y="416.09218663"/>
      <point x="51.9815772128" y="234.219122721" type="curve" smooth="yes"/>
      <point x="51.9815772128" y="63.8089905391"/>
      <point x="119.930214697" y="-6.14281186005"/>
      <point x="230.69874716" y="-6.14281186005" type="curve" smooth="yes"/>
      <point x="320.534861111" y="-6.14281186005"/>
      <point x="383.265390511" y="42.8827349959"/>
    </contour>
  </outline>
</glyph>
<glyph name="seven" format="1">
  <advance width="409.818969124"/>
  <unicode hex="0037"/>
  <outline>
    <contour>
      <point x="124.156868519" y="0.0" type="line"/>
      <point x="368.614652193" y="480.779977278" type="line"/>
      <point x="368.614652193" y="500.239988708" type="line"/>
      <point x="21.9292644862" y="500.239988708" type="line"/>
      <point x="21.9292644862" y="469.668565595" type="line"/>
      <point x="344.368849798" y="469.668565595" type="line"/>
      <point x="335.006315679" y="481.397165265" type="line"/>
      <point x="89.1971619936" y="0.0" type="line"/>
    </contour>
  </outline>
</glyph>
<glyph name="eight" format="1">
  <advance width="409.818969124"/>
  <unicode hex="0038"/>
  <outline>
    <contour>
      <point x="380.211496433" y="128.734733058" type="curve" smooth="yes"/>
      <point x="380.211496433" y="199.215167463"/>
      <point x="334.876233392" y="242.508910471"/>
      <point x="219.973384839" y="263.906337963" type="curve" smooth="yes"/>
      <point x="115.461594455" y="283.18720952"/>
      <point x="79.9721236061" y="316.633660803"/>
      <point x="79.9721236061" y="378.735751477" type="curve" smooth="yes"/>
      <point x="79.9721236061" y="439.63253419"/>
      <point x="121.482436592" y="477.076173383"/>
      <point x="202.981170496" y="477.076173383" type="curve" smooth="yes"/>
      <point x="283.309166388" y="477.076173383"/>
      <point x="331.243373529" y="442.953722116"/>
      <point x="331.243373529" y="377.765691505" type="curve" smooth="yes"/>
      <point x="331.243373529" y="320.659916727"/>
      <point x="302.490532852" y="284.714969511"/>
      <point x="234.739377271" y="258.145466101" type="curve"/>
      <point x="260.374967716" y="244.771482444" type="line"/>
      <point x="326.117603175" y="269.166293892"/>
      <point x="361.745918003" y="314.575916865"/>
      <point x="361.745918003" y="380.088427417" type="curve" smooth="yes"/>
      <point x="361.745918003" y="459.121613634"/>
      <point x="303.688230711" y="506.382800569"/>
      <point x="203.92611851" y="506.382800569" type="curve" smooth="yes"/>
      <point x="104.782738382" y="506.382800569"/>
      <point x="47.4893671047" y="457.768937694"/>
      <point x="47.4893671047" y="377.64806751" type="curve" smooth="yes"/>
      <point x="47.4893671047" y="302.788505196"/>
      <point x="92.4215781283" y="256.878642261"/>
      <point x="211.052320775" y="234.599710778" type="curve" smooth="yes"/>
      <point x="310.081795038" y="216.288899193"/>
      <point x="347.819055931" y="185.928387847"/>
      <point x="347.819055931" y="126.735801117" type="curve" smooth="yes"/>
      <point x="347.819055931" y="59.813830539"/>
      <point x="299.210848775" y="23.163815325"/>
      <point x="208.818010654" y="23.163815325" type="curve" smooth="yes"/>
      <point x="113.349278409" y="23.163815325"/>
      <point x="61.416229177" y="59.9314545338"/>
      <point x="61.416229177" y="130.409861028" type="curve" smooth="yes"/>
      <point x="61.416229177" y="186.839635821"/>
      <point x="96.5026480086" y="233.071274816"/>
      <point x="166.008225618" y="252.440026384" type="curve"/>
      <point x="137.179897115" y="265.637574049" type="line"/>
      <point x="69.3734735911" y="243.006446552"/>
      <point x="29.6074726909" y="196.4800716"/>
      <point x="29.6074726909" y="127.175877142" type="curve" smooth="yes"/>
      <point x="29.6074726909" y="40.7661790605"/>
      <point x="92.2443161102" y="-6.14281186005"/>
      <point x="208.144010639" y="-6.14281186005" type="curve" smooth="yes"/>
      <point x="320.044863076" y="-6.14281186005"/>
      <point x="380.211496433" y="46.3803589144"/>
    </contour>
  </outline>
</glyph>
<glyph name="nine" format="1">
  <advance width="409.818969124"/>
  <unicode hex="0039"/>
  <outline>
    <contour>
      <point x="26.5535786127" y="362.717255849" type="curve" smooth="yes"/>
      <point x="26.5535786127" y="266.166206055"/>
      <point x="87.4878979652" y="217.670643146"/>
      <point x="191.148426316" y="217.670643146" type="curve" smooth="yes"/>
      <point x="242.011163478" y="217.670643146"/>
      <point x="297.546742746" y="234.276582778"/>
      <point x="332.681689559" y="261.404462178" type="curve"/>
      <point x="332.681689559" y="292.885781326" type="line"/>
      <point x="296.153584716" y="261.114458013"/>
      <point x="237.570851331" y="247.330142315"/>
      <point x="194.528536335" y="247.330142315" type="curve" smooth="yes"/>
      <point x="105.712858224" y="247.330142315"/>
      <point x="58.1365451002" y="285.155721507"/>
      <point x="58.1365451002" y="363.628503823" type="curve" smooth="yes"/>
      <point x="58.1365451002" y="441.190038165"/>
      <point x="106.789910256" y="476.723301399"/>
      <point x="179.120221964" y="476.723301399" type="curve" smooth="yes"/>
      <point x="272.115374166" y="476.723301399"/>
      <point x="325.531897428" y="420.234714609"/>
      <point x="325.531897428" y="268.578849889" type="curve" smooth="yes"/>
      <point x="325.531897428" y="258.818086234" type="line" smooth="yes"/>
      <point x="325.531897428" y="100.315017626"/>
      <point x="265.014110015" y="24.1048072831"/>
      <point x="144.287901227" y="24.1048072831" type="curve" smooth="yes"/>
      <point x="116.112004604" y="24.1048072831"/>
      <point x="78.0970557513" y="28.3960551811"/>
      <point x="49.4277911126" y="40.6228669038" type="curve"/>
      <point x="49.4277911126" y="9.69924777591" type="line"/>
      <point x="77.7391617342" y="-2.02799995422"/>
      <point x="113.012952526" y="-6.14281186005"/>
      <point x="145.684429238" y="-6.14281186005" type="curve" smooth="yes"/>
      <point x="283.419702272" y="-6.14281186005"/>
      <point x="357.837391911" y="84.1478020787"/>
      <point x="357.837391911" y="266.020865988" type="curve" smooth="yes"/>
      <point x="357.837391911" y="436.430998169"/>
      <point x="289.888754427" y="506.382800569"/>
      <point x="179.120221964" y="506.382800569" type="curve" smooth="yes"/>
      <point x="89.2841080123" y="506.382800569"/>
      <point x="26.5535786127" y="457.357253713"/>
    </contour>
  </outline>
</glyph>
<glyph name="A" format="1">
  <advance width="489.270764867"/>
  <unicode hex="0041"/>
  <outline>
    <contour>
      <point x="244.904645442" y="513.759988403" type="move" name="top"/>
    </contour>
    <contour>
      <point x="475.748976543" y="0.0" type="move" name="ogonek"/>
    </contour>
    <contour>
      <point x="244.949803441" y="0.0" type="move" name="bottom"/>
    </contour>
    <contour>
      <point x="47.1752828379" y="0.0" type="line"/>
      <point x="248.500435517" y="482.132653218" type="line"/>
      <point x="240.051171336" y="482.132653218" type="line"/>
      <point x="441.376324014" y="0.0" type="line"/>
      <point x="475.748976543" y="0.0" type="line"/>
      <point x="265.922661722" y="500.239988708" type="line"/>
      <point x="223.348103145" y="500.239988708" type="line"/>
      <point x="13.5217883241" y="0.0" type="line"/>
    </contour>
    <contour>
      <point x="378.579068481" y="172.759232226" type="line"/>
      <point x="369.85211634" y="203.41853535" type="line"/>
      <point x="119.373490528" y="203.41853535" type="line"/>
      <point x="110.601380387" y="172.759232226" type="line"/>
    </contour>
  </outline>
</glyph>
<glyph name="B" format="1">
  <advance width="452.454862122"/>
  <unicode hex="0042"/>
  <outline>
    <contour>
      <point x="231.060011158" y="500.239988708" type="move" name="top"/>
    </contour>
    <contour>
      <point x="231.060011158" y="0.0" type="move" name="bottom"/>
    </contour>
    <contour>
      <point x="424.240547462" y="136.082176909" type="curve" smooth="yes"/>
      <point x="424.240547462" y="203.241423388"/>
      <point x="387.39296664" y="251.413182326"/>
      <point x="298.886654566" y="260.201182128" type="curve"/>
      <point x="297.000128519" y="254.910806245" type="line"/>
      <point x="376.925072394" y="265.726806001"/>
      <point x="409.548021125" y="310.665932994"/>
      <point x="409.548021125" y="372.769375609" type="curve" smooth="yes"/>
      <point x="409.548021125" y="460.44386962"/>
      <point x="352.074017849" y="505.148424594"/>
      <point x="214.654850812" y="505.148424594" type="curve" smooth="yes"/>
      <point x="157.093901517" y="505.148424594"/>
      <point x="116.504946679" y="500.563116709"/>
      <point x="68.918523613" y="490.805056936" type="curve"/>
      <point x="68.918523613" y="5.29037588316" type="line"/>
      <point x="120.45526079" y="-1.41081196687"/>
      <point x="156.235899522" y="-3.67405991062"/>
      <point x="201.393900544" y="-3.67405991062" type="curve" smooth="yes"/>
      <point x="363.802966106" y="-3.67405991062"/>
      <point x="424.240547462" y="45.3217429615"/>
    </contour>
    <contour>
      <point x="100.820966079" y="33.1861911013" type="curve"/>
      <point x="100.820966079" y="466.083737635" type="line"/>
      <point x="132.089174818" y="471.932489509"/>
      <point x="165.560015602" y="475.253677435"/>
      <point x="216.50295882" y="475.253677435" type="curve" smooth="yes"/>
      <point x="331.601267546" y="475.253677435"/>
      <point x="378.097158656" y="445.569166074"/>
      <point x="378.097158656" y="372.122443638" type="curve" smooth="yes"/>
      <point x="378.097158656" y="301.879285133"/>
      <point x="331.01758353" y="272.077149777"/>
      <point x="235.774641284" y="272.077149777" type="curve" smooth="yes"/>
      <point x="94.6161219621" y="272.077149777" type="line"/>
      <point x="94.6161219621" y="242.005966626" type="line"/>
      <point x="241.079695387" y="242.005966626" type="line" smooth="yes"/>
      <point x="343.556005802" y="242.005966626"/>
      <point x="392.476948975" y="210.411079306"/>
      <point x="392.476948975" y="137.787048863" type="curve" smooth="yes"/>
      <point x="392.476948975" y="64.1638904343"/>
      <point x="349.663793959" y="26.2206872483"/>
      <point x="205.003170542" y="26.2206872483" type="curve" smooth="yes"/>
      <point x="162.99948954" y="26.2206872483"/>
      <point x="132.988964832" y="28.0722512103"/>
    </contour>
  </outline>
</glyph>
<glyph name="C" format="1">
  <advance width="429.677705584"/>
  <unicode hex="0043"/>
  <outline>
    <contour>
      <point x="256.897801736" y="513.759988403" type="move" name="top"/>
    </contour>
    <contour>
      <point x="263.186221891" y="0.0" type="move" name="bottom"/>
    </contour>
    <contour>
      <point x="413.00496722" y="15.4006316704" type="curve"/>
      <point x="413.00496722" y="47.4416787486" type="line"/>
      <point x="364.257916085" y="30.8066711035"/>
      <point x="326.423599231" y="25.3986712256"/>
      <point x="282.120230222" y="25.3986712256" type="curve" smooth="yes"/>
      <point x="159.049175428" y="25.3986712256"/>
      <point x="77.1925475072" y="81.858865973"/>
      <point x="77.1925475072" y="250.737182342" type="curve" smooth="yes"/>
      <point x="77.1925475072" y="410.974866887"/>
      <point x="155.276123335" y="474.841317483"/>
      <point x="286.973704328" y="474.841317483" type="curve" smooth="yes"/>
      <point x="330.467599322" y="474.841317483"/>
      <point x="373.061704302" y="468.375377622"/>
      <point x="413.00496722" y="456.736685874" type="curve"/>
      <point x="413.00496722" y="488.777732952" type="line"/>
      <point x="372.071598288" y="500.534048695"/>
      <point x="334.192123435" y="506.382800569"/>
      <point x="286.699386349" y="506.382800569" type="curve" smooth="yes"/>
      <point x="138.215161128" y="506.382800569"/>
      <point x="43.3550510137" y="427.877570387"/>
      <point x="43.3550510137" y="249.385182372" type="curve" smooth="yes"/>
      <point x="43.3550510137" y="61.4287945709"/>
      <point x="142.481581237" y="-6.14281186005"/>
      <point x="280.814018211" y="-6.14281186005" type="curve" smooth="yes"/>
      <point x="329.609597327" y="-6.14281186005"/>
      <point x="371.578230272" y="0.499563992592"/>
    </contour>
  </outline>
</glyph>
<glyph name="D" format="1">
  <advance width="517.842973545"/>
  <unicode hex="0044"/>
  <outline>
    <contour>
      <point x="68.918523613" y="257.555994186" type="move" name="stroke"/>
    </contour>
    <contour>
      <point x="237.525693331" y="513.759988403" type="move" name="top"/>
    </contour>
    <contour>
      <point x="258.290959766" y="250.119994354" type="move" name="center"/>
    </contour>
    <contour>
      <point x="237.977273328" y="0.0" type="move" name="bottom"/>
    </contour>
    <contour>
      <point x="474.487922531" y="250.119994354" type="curve" smooth="yes"/>
      <point x="474.487922531" y="420.266486503"/>
      <point x="382.636548495" y="504.971988602"/>
      <point x="208.460116637" y="504.971988602" type="curve" smooth="yes"/>
      <point x="165.584953717" y="504.971988602"/>
      <point x="114.708736632" y="500.563116709"/>
      <point x="68.918523613" y="490.805056936" type="curve"/>
      <point x="68.918523613" y="5.34918788055" type="line"/>
      <point x="120.951998787" y="-1.41081196687"/>
      <point x="156.371373521" y="-3.49762391847"/>
      <point x="201.619690543" y="-3.49762391847" type="curve" smooth="yes"/>
      <point x="382.230126498" y="-3.49762391847"/>
      <point x="474.487922531" y="79.2677582365"/>
    </contour>
    <contour>
      <point x="101.046756078" y="34.6564910359" type="curve"/>
      <point x="101.046756078" y="464.731061696" type="line"/>
      <point x="139.141910988" y="470.521001571"/>
      <point x="173.331909787" y="473.7833775"/>
      <point x="207.070328588" y="473.7833775" type="curve" smooth="yes"/>
      <point x="362.073482193" y="473.7833775"/>
      <point x="441.011690036" y="402.481603043"/>
      <point x="441.011690036" y="250.237618349" type="curve" smooth="yes"/>
      <point x="441.011690036" y="97.7583856657"/>
      <point x="362.299272192" y="27.7497991802"/>
      <point x="205.183802541" y="27.7497991802" type="curve" smooth="yes"/>
      <point x="159.855279462" y="27.7497991802"/>
      <point x="129.170754739" y="30.2185511297"/>
    </contour>
  </outline>
</glyph>
<glyph name="E" format="1">
  <advance width="433.676547675"/>
  <unicode hex="0045"/>
  <outline>
    <contour>
      <point x="13.4348423054" y="500.239988708" type="move" name="topleft"/>
    </contour>
    <contour>
      <point x="239.728325376" y="513.759988403" type="move" name="top"/>
    </contour>
    <contour>
      <point x="372.297388287" y="0.0" type="move" name="ogonek"/>
    </contour>
    <contour>
      <point x="240.986009407" y="0.0" type="move" name="bottom"/>
    </contour>
    <contour>
      <point x="399.708968895" y="0.0" type="line"/>
      <point x="399.708968895" y="30.7769271196" type="line"/>
      <point x="100.911282079" y="30.7769271196" type="line"/>
      <point x="100.911282079" y="469.463061589" type="line"/>
      <point x="396.338968819" y="469.463061589" type="line"/>
      <point x="396.338968819" y="500.239988708" type="line"/>
      <point x="68.918523613" y="500.239988708" type="line"/>
      <point x="68.918523613" y="0.0" type="line"/>
    </contour>
    <contour>
      <point x="362.503494056" y="241.711906639" type="line"/>
      <point x="362.503494056" y="272.371209764" type="line"/>
      <point x="86.6433758934" y="272.371209764" type="line"/>
      <point x="86.6433758934" y="241.711906639" type="line"/>
    </contour>
  </outline>
</glyph>
<glyph name="F" format="1">
  <advance width="418.671285322"/>
  <unicode hex="0046"/>
  <outline>
    <contour>
      <point x="101.046756078" y="0.0" type="line"/>
      <point x="101.046756078" y="469.051377607" type="line"/>
      <point x="393.194758741" y="469.051377607" type="line"/>
      <point x="393.194758741" y="500.239988708" type="line"/>
      <point x="68.918523613" y="500.239988708" type="line"/>
      <point x="68.918523613" y="0.0" type="line"/>
    </contour>
    <contour>
      <point x="359.22380998" y="240.006358715" type="line"/>
      <point x="359.22380998" y="271.194969817" type="line"/>
      <point x="93.6543240444" y="271.194969817" type="line"/>
      <point x="93.6543240444" y="240.006358715" type="line"/>
    </contour>
  </outline>
</glyph>
<glyph name="G" format="1">
  <advance width="504.307705298"/>
  <unicode hex="0047"/>
  <outline>
    <contour>
      <point x="270.829382039" y="513.759988403" type="move" name="top"/>
    </contour>
    <contour>
      <point x="270.829382039" y="0.0" type="move" name="bottom"/>
    </contour>
    <contour>
      <point x="439.700759794" y="6.75999984741" type="curve"/>
      <point x="439.700759794" y="243.359994507" type="line"/>
      <point x="408.340213324" y="243.359994507" type="line"/>
      <point x="408.340213324" y="19.9582234825" type="line"/>
      <point x="421.082857461" y="36.9785509771" type="line"/>
      <point x="390.843172774" y="31.0709871065"/>
      <point x="356.917382012" y="27.7497991802"/>
      <point x="312.078856969" y="27.7497991802" type="curve" smooth="yes"/>
      <point x="157.746333398" y="27.7497991802"/>
      <point x="77.7310735232" y="100.374505594"/>
      <point x="77.1022315077" y="250.266686363" type="curve" smooth="yes"/>
      <point x="76.4733894922" y="410.91605489"/>
      <point x="170.458647707" y="474.782505486"/>
      <point x="298.973600585" y="474.841317483" type="curve" smooth="yes"/>
      <point x="335.505075408" y="474.841317483"/>
      <point x="373.923076278" y="470.844129572"/>
      <point x="425.814337491" y="456.736685874" type="curve"/>
      <point x="425.814337491" y="488.777732952" type="line"/>
      <point x="379.805074435" y="500.534048695"/>
      <point x="340.890335568" y="506.382800569"/>
      <point x="296.903072558" y="506.382800569" type="curve" smooth="yes"/>
      <point x="151.511159453" y="506.382800569"/>
      <point x="42.7262089981" y="428.494758374"/>
      <point x="43.3550510137" y="249.267558377" type="curve" smooth="yes"/>
      <point x="43.9838930292" y="80.561622179"/>
      <point x="136.822003098" y="-3.67405991062"/>
      <point x="312.711068965" y="-3.67405991062" type="curve" smooth="yes"/>
      <point x="355.131281907" y="-3.67405991062"/>
      <point x="389.241074649" y="-1.35199996948"/>
    </contour>
  </outline>
</glyph>
<glyph name="H" format="1">
  <advance width="532.170865903"/>
  <unicode hex="0048"/>
  <outline>
    <contour>
      <point x="13.5251583049" y="500.239988708" type="move" name="topleft"/>
    </contour>
    <contour>
      <point x="266.108011951" y="513.759988403" type="move" name="top"/>
    </contour>
    <contour>
      <point x="266.108011951" y="387.731283195" type="move" name="center"/>
    </contour>
    <contour>
      <point x="266.108011951" y="0.0" type="move" name="bottom"/>
    </contour>
    <contour>
      <point x="101.046756078" y="0.0" type="line"/>
      <point x="101.046756078" y="240.947350673" type="line"/>
      <point x="431.124109825" y="240.947350673" type="line"/>
      <point x="431.124109825" y="0.0" type="line"/>
      <point x="463.25234229" y="0.0" type="line"/>
      <point x="463.25234229" y="500.239988708" type="line"/>
      <point x="431.124109825" y="500.239988708" type="line"/>
      <point x="431.124109825" y="273.13576573" type="line"/>
      <point x="101.046756078" y="273.13576573" type="line"/>
      <point x="101.046756078" y="500.239988708" type="line"/>
      <point x="68.918523613" y="500.239988708" type="line"/>
      <point x="68.918523613" y="0.0" type="line"/>
    </contour>
  </outline>
</glyph>
<glyph name="I" format="1">
  <advance width="169.965279691"/>
  <unicode hex="0049"/>
  <outline>
    <contour>
      <point x="84.9826398455" y="513.759988403" type="move" name="top"/>
    </contour>
    <contour>
      <point x="101.046756078" y="0.0" type="move" name="ogonek"/>
    </contour>
    <contour>
      <point x="84.9374818458" y="0.0" type="move" name="bottom"/>
    </contour>
    <contour>
      <point x="101.046756078" y="0.0" type="line"/>
      <point x="101.046756078" y="500.239988708" type="line"/>
      <point x="68.918523613" y="500.239988708" type="line"/>
      <point x="68.918523613" y="0.0" type="line"/>
    </contour>
  </outline>
</glyph>
<glyph name="J" format="1">
  <advance width="169.965279691"/>
  <unicode hex="004A"/>
  <outline>
    <contour>
      <point x="85.0277978453" y="513.759988403" type="move" name="top"/>
    </contour>
    <contour>
      <point x="121.169700575" y="0.0" type="move" name="bottom"/>
    </contour>
    <contour>
      <point x="101.046756078" y="86.4996060037" type="curve"/>
      <point x="101.046756078" y="500.239988708" type="line"/>
      <point x="69.0088396124" y="500.239988708" type="line"/>
      <point x="69.0088396124" y="97.1384937971" type="line" smooth="yes"/>
      <point x="69.0088396124" y="20.1042395204"/>
      <point x="47.4442091049" y="-40.3822111517"/>
      <point x="-0.94494801368" y="-98.5763458665" type="curve"/>
      <point x="20.7403283204" y="-115.449305382" type="line"/>
      <point x="76.5569655301" y="-49.7887508813"/>
      <point x="96.6448619694" y="8.78867577197"/>
    </contour>
  </outline>
</glyph>
<glyph name="K" format="1">
  <advance width="447.966021995"/>
  <unicode hex="004B"/>
  <outline>
    <contour>
      <point x="228.905907094" y="500.239988708" type="move" name="top"/>
    </contour>
    <contour>
      <point x="229.041381093" y="0.0" type="move" name="bottom"/>
    </contour>
    <contour>
      <point x="445.412235895" y="0.0" type="line"/>
      <point x="225.878972862" y="262.729422045" type="line"/>
      <point x="225.608024863" y="252.088506341" type="line"/>
      <point x="431.077603575" y="500.239988708" type="line"/>
      <point x="392.793054973" y="500.239988708" type="line"/>
      <point x="191.235372335" y="256.086370222" type="line"/>
      <point x="406.09242328" y="0.0" type="line"/>
    </contour>
    <contour>
      <point x="101.046756078" y="0.0" type="line"/>
      <point x="101.046756078" y="500.239988708" type="line"/>
      <point x="68.918523613" y="500.239988708" type="line"/>
      <point x="68.918523613" y="0.0" type="line"/>
    </contour>
    <contour>
      <point x="209.988748667" y="240.947350673" type="line"/>
      <point x="209.988748667" y="273.13576573" type="line"/>
      <point x="94.5709639623" y="273.13576573" type="line"/>
      <point x="94.5709639623" y="240.947350673" type="line"/>
    </contour>
  </outline>
</glyph>
<glyph name="L" format="1">
  <advance width="392.875282762"/>
  <unicode hex="004C"/>
  <outline>
    <contour>
      <point x="255.824119685" y="500.239988708" type="move" name="caronalt"/>
    </contour>
    <contour>
      <point x="84.9826398455" y="513.759988403" type="move" name="top"/>
    </contour>
    <contour>
      <point x="277.444018135" y="266.199329891" type="move" name="periodcentered"/>
    </contour>
    <contour>
      <point x="84.9826398455" y="263.96447399" type="move" name="slash"/>
    </contour>
    <contour>
      <point x="228.583061134" y="0.0" type="move" name="bottom"/>
    </contour>
    <contour>
      <point x="387.618756639" y="0.0" type="line"/>
      <point x="387.618756639" y="31.1886111013" type="line"/>
      <point x="101.046756078" y="31.1886111013" type="line"/>
      <point x="101.046756078" y="500.239988708" type="line"/>
      <point x="68.918523613" y="500.239988708" type="line"/>
      <point x="68.918523613" y="0.0" type="line"/>
    </contour>
  </outline>
</glyph>
<glyph name="M" format="1">
  <advance width="632.606978119"/>
  <unicode hex="004D"/>
  <outline>
    <contour>
      <point x="317.026017055" y="500.239988708" type="move" name="top"/>
    </contour>
    <contour>
      <point x="317.026017055" y="0.0" type="move" name="bottom"/>
    </contour>
    <contour>
      <point x="101.133702097" y="0.0" type="line"/>
      <point x="101.133702097" y="471.372761578" type="line"/>
      <point x="85.8925398018" y="471.372761578" type="line"/>
      <point x="299.93000679" y="68.188118448" type="line"/>
      <point x="332.676971328" y="68.188118448" type="line"/>
      <point x="545.543700304" y="471.372761578" type="line"/>
      <point x="531.473276022" y="471.372761578" type="line"/>
      <point x="531.473276022" y="0.0" type="line"/>
      <point x="562.340454475" y="0.0" type="line"/>
      <point x="562.340454475" y="500.239988708" type="line"/>
      <point x="526.022637977" y="500.239988708" type="line"/>
      <point x="311.450014953" y="90.0607737118" type="line"/>
      <point x="322.730753195" y="90.0607737118" type="line"/>
      <point x="106.584340142" y="500.239988708" type="line"/>
      <point x="70.2665236435" y="500.239988708" type="line"/>
      <point x="70.2665236435" y="0.0" type="line"/>
    </contour>
  </outline>
</glyph>
<glyph name="N" format="1">
  <advance width="541.829286134"/>
  <unicode hex="004E"/>
  <outline>
    <contour>
      <point x="271.229064075" y="513.759988403" type="move" name="top"/>
    </contour>
    <contour>
      <point x="271.229064075" y="0.0" type="move" name="bottom"/>
    </contour>
    <contour>
      <point x="99.7857020662" y="0.0" type="line"/>
      <point x="99.7857020662" y="465.198177823" type="line"/>
      <point x="88.6822258431" y="465.198177823" type="line"/>
      <point x="438.89600401" y="0.0" type="line"/>
      <point x="472.910762521" y="0.0" type="line"/>
      <point x="472.910762521" y="500.239988708" type="line"/>
      <point x="442.043584068" y="500.239988708" type="line"/>
      <point x="442.043584068" y="35.0418108854" type="line"/>
      <point x="453.147060291" y="35.0418108854" type="line"/>
      <point x="102.933282125" y="500.239988708" type="line"/>
      <point x="68.918523613" y="500.239988708" type="line"/>
      <point x="68.918523613" y="0.0" type="line"/>
    </contour>
  </outline>
</glyph>
<glyph name="O" format="1">
  <advance width="533.125923859"/>
  <unicode hex="004F"/>
  <outline>
    <contour>
      <point x="15.1441063339" y="500.239988708" type="move" name="topleft"/>
    </contour>
    <contour>
      <point x="266.562961929" y="250.119994354" type="move" name="center"/>
    </contour>
    <contour>
      <point x="266.562961929" y="0.0" type="move" name="bottom"/>
    </contour>
    <contour>
      <point x="266.562961929" y="513.759988403" type="move" name="top"/>
    </contour>
    <contour>
      <point x="327.723071281" y="500.239988708" type="move" name="topright"/>
    </contour>
    <contour>
      <point x="326.726225306" y="0.0" type="move" name="ogonek"/>
    </contour>
    <contour>
      <point x="489.770872845" y="250.119994354" type="curve" smooth="yes"/>
      <point x="489.770872845" y="427.995194382"/>
      <point x="398.774130824" y="506.382800569"/>
      <point x="266.562961929" y="506.382800569" type="curve" smooth="yes"/>
      <point x="136.238319082" y="506.382800569"/>
      <point x="43.3550510137" y="428.112818377"/>
      <point x="43.3550510137" y="250.119994354" type="curve" smooth="yes"/>
      <point x="43.3550510137" y="72.127170332"/>
      <point x="134.396951035" y="-6.14281186005"/>
      <point x="266.562961929" y="-6.14281186005" type="curve" smooth="yes"/>
      <point x="396.842446777" y="-6.14281186005"/>
      <point x="489.770872845" y="72.2447943267"/>
    </contour>
    <contour>
      <point x="76.8312835093" y="251.589618318" type="curve" smooth="yes"/>
      <point x="76.8312835093" y="411.445362866"/>
      <point x="154.150543323" y="474.57700148"/>
      <point x="266.562961929" y="474.57700148" type="curve" smooth="yes"/>
      <point x="378.975380536" y="474.57700148"/>
      <point x="456.294640349" y="411.268926874"/>
      <point x="456.294640349" y="248.65037039" type="curve" smooth="yes"/>
      <point x="456.294640349" y="88.9710618344"/>
      <point x="379.110854535" y="25.6629872286"/>
      <point x="266.562961929" y="25.6629872286" type="curve" smooth="yes"/>
      <point x="154.015069324" y="25.6629872286"/>
      <point x="76.8312835093" y="88.7946258423"/>
    </contour>
  </outline>
</glyph>
<glyph name="P" format="1">
  <advance width="443.786547904"/>
  <unicode hex="0050"/>
  <outline>
    <contour>
      <point x="101.046756078" y="0.0" type="line"/>
      <point x="101.046756078" y="175.640344127" type="line"/>
      <point x="133.346858849" y="172.55440419"/>
      <point x="158.236331433" y="171.261216218"/>
      <point x="189.369066173" y="171.261216218" type="curve" smooth="yes"/>
      <point x="345.288859696" y="171.261216218"/>
      <point x="410.628443138" y="231.66046285"/>
      <point x="410.628443138" y="339.439196381" type="curve" smooth="yes"/>
      <point x="410.628443138" y="454.477493752"/>
      <point x="337.607281511" y="505.148424594"/>
      <point x="205.128534599" y="505.148424594" type="curve" smooth="yes"/>
      <point x="155.874635524" y="505.148424594"/>
      <point x="116.640420678" y="500.857176696"/>
      <point x="68.918523613" y="491.334364912" type="curve"/>
      <point x="68.918523613" y="0.0" type="line"/>
    </contour>
    <contour>
      <point x="101.046756078" y="207.00471525" type="curve"/>
      <point x="101.046756078" y="466.318985625" type="line"/>
      <point x="132.089174818" y="472.050113503"/>
      <point x="164.927803605" y="475.194865438"/>
      <point x="206.167168593" y="475.194865438" type="curve" smooth="yes"/>
      <point x="319.830531269" y="475.194865438"/>
      <point x="377.64894864" y="433.695226336"/>
      <point x="377.64894864" y="338.822008393" type="curve" smooth="yes"/>
      <point x="377.64894864" y="247.975046376"/>
      <point x="325.490109409" y="201.214775374"/>
      <point x="189.459382172" y="201.214775374" type="curve" smooth="yes"/>
      <point x="155.675805371" y="201.214775374"/>
      <point x="129.125596739" y="203.125151334"/>
    </contour>
  </outline>
</glyph>
<glyph name="Q" format="1">
  <advance width="533.125923859"/>
  <unicode hex="0051"/>
  <outline>
    <contour>
      <point x="479.528768598" y="-36.4735792218" type="line"/>
      <point x="396.43939476" y="-30.4186473727"/>
      <point x="300.192866578" y="-17.0453396862"/>
      <point x="238.939071246" y="7.20277975361" type="curve"/>
      <point x="232.13706319" y="-1.64538398607" type="line"/>
      <point x="398.371078807" y="-19.0456235675"/>
      <point x="489.770872845" y="68.5416664026"/>
      <point x="489.770872845" y="250.119994354" type="curve" smooth="yes"/>
      <point x="489.770872845" y="431.698322306"/>
      <point x="396.887604777" y="506.382800569"/>
      <point x="266.562961929" y="506.382800569" type="curve" smooth="yes"/>
      <point x="136.238319082" y="506.382800569"/>
      <point x="43.3550510137" y="428.112818377"/>
      <point x="43.3550510137" y="249.53187438" type="curve" smooth="yes"/>
      <point x="43.3550510137" y="51.641666784"/>
      <point x="140.866003189" y="-36.2410351136"/>
      <point x="475.432870545" y="-67.1328823467" type="curve"/>
    </contour>
    <contour>
      <point x="76.8312835093" y="251.589618318" type="curve" smooth="yes"/>
      <point x="76.8312835093" y="411.445362866"/>
      <point x="154.150543323" y="474.57700148"/>
      <point x="266.562961929" y="474.57700148" type="curve" smooth="yes"/>
      <point x="378.975380536" y="474.57700148"/>
      <point x="456.294640349" y="411.268926874"/>
      <point x="456.294640349" y="248.65037039" type="curve" smooth="yes"/>
      <point x="456.294640349" y="88.9710618344"/>
      <point x="379.110854535" y="25.6629872286"/>
      <point x="266.562961929" y="25.6629872286" type="curve" smooth="yes"/>
      <point x="153.924753324" y="25.6629872286"/>
      <point x="76.8312835093" y="88.6770018475"/>
    </contour>
  </outline>
</glyph>
<glyph name="R" format="1">
  <advance width="487.902544952"/>
  <unicode hex="0052"/>
  <outline>
    <contour>
      <point x="229.218643111" y="513.759988403" type="move" name="top"/>
    </contour>
    <contour>
      <point x="244.178747465" y="0.0" type="move" name="bottom"/>
    </contour>
    <contour>
      <point x="100.820966079" y="0.0" type="line"/>
      <point x="100.820966079" y="219.491787154" type="line"/>
      <point x="133.346858849" y="216.964223207"/>
      <point x="158.955489448" y="215.053847248"/>
      <point x="195.747802327" y="215.053847248" type="curve" smooth="yes"/>
      <point x="341.78001564" y="215.053847248"/>
      <point x="412.108547187" y="263.932026125"/>
      <point x="412.108547187" y="361.394323893" type="curve" smooth="yes"/>
      <point x="412.108547187" y="463.588621554"/>
      <point x="347.800857778" y="505.148424594"/>
      <point x="209.398324689" y="505.148424594" type="curve" smooth="yes"/>
      <point x="150.131481346" y="505.148424594"/>
      <point x="107.701158461" y="498.711552747"/>
      <point x="68.918523613" y="490.805056936" type="curve"/>
      <point x="68.918523613" y="0.0" type="line"/>
    </contour>
    <contour>
      <point x="446.937497943" y="0.0" type="line"/>
      <point x="246.995393353" y="238.480626635" type="line"/>
      <point x="208.978422768" y="238.480626635" type="line"/>
      <point x="408.111053345" y="0.0" type="line"/>
    </contour>
    <contour>
      <point x="100.820966079" y="249.6805943" type="curve"/>
      <point x="100.820966079" y="465.584173643" type="line"/>
      <point x="133.25654285" y="471.374113519"/>
      <point x="161.60633151" y="475.253677435"/>
      <point x="209.762958668" y="475.253677435" type="curve" smooth="yes"/>
      <point x="329.892003517" y="475.253677435"/>
      <point x="380.793158717" y="446.450670064"/>
      <point x="380.793158717" y="360.159947918" type="curve" smooth="yes"/>
      <point x="380.793158717" y="283.50898558"/>
      <point x="328.005477471" y="245.066218401"/>
      <point x="196.82822434" y="245.066218401" type="curve" smooth="yes"/>
      <point x="154.869701338" y="245.066218401"/>
      <point x="135.907384911" y="246.418218371"/>
    </contour>
  </outline>
</glyph>
<glyph name="S" format="1">
  <advance width="390.092336682"/>
  <unicode hex="0053"/>
  <outline>
    <contour>
      <point x="197.585800393" y="513.759988403" type="move" name="top"/>
    </contour>
    <contour>
      <point x="197.585800393" y="0.0" type="move" name="bottom"/>
    </contour>
    <contour>
      <point x="358.508021945" y="132.203288963" type="curve" smooth="yes"/>
      <point x="358.508021945" y="202.507963346"/>
      <point x="318.603177065" y="242.803646428"/>
      <point x="201.730226427" y="265.170457922" type="curve" smooth="yes"/>
      <point x="97.492754022" y="285.038773482"/>
      <point x="64.7444412344" y="311.049224933"/>
      <point x="64.7444412344" y="372.504383636" type="curve" smooth="yes"/>
      <point x="64.7444412344" y="438.27985825"/>
      <point x="113.217174391" y="475.370625459"/>
      <point x="212.066016654" y="475.370625459" type="curve" smooth="yes"/>
      <point x="253.8991756" y="475.370625459"/>
      <point x="295.826020526" y="469.227813599"/>
      <point x="337.072125475" y="456.677873876" type="curve"/>
      <point x="337.072125475" y="488.483672965" type="line"/>
      <point x="298.834756605" y="500.298800706"/>
      <point x="255.966333646" y="506.382800569"/>
      <point x="212.781804689" y="506.382800569" type="curve" smooth="yes"/>
      <point x="91.8480040549" y="506.382800569"/>
      <point x="31.5843147369" y="453.801493767"/>
      <point x="31.5843147369" y="370.681887687" type="curve" smooth="yes"/>
      <point x="31.5843147369" y="295.175393402"/>
      <point x="74.588211695" y="256.583906304"/>
      <point x="191.412634353" y="234.070402802" type="curve" smooth="yes"/>
      <point x="292.328634662" y="214.319711236"/>
      <point x="325.347895448" y="189.308387771"/>
      <point x="325.347895448" y="130.58629702" type="curve" smooth="yes"/>
      <point x="325.347895448" y="61.7248824688"/>
      <point x="275.978742258" y="24.8693632491"/>
      <point x="173.228113864" y="24.8693632491" type="curve" smooth="yes"/>
      <point x="133.91032298" y="24.8693632491"/>
      <point x="86.6298959702" y="31.1886111013"/>
      <point x="38.1922108711" y="47.2949867403" type="curve"/>
      <point x="38.1922108711" y="15.4891876517" type="line"/>
      <point x="81.6443178458" y="0.793623979507"/>
      <point x="130.040214926" y="-6.14281186005"/>
      <point x="172.689587848" y="-6.14281186005" type="curve" smooth="yes"/>
      <point x="291.504332475" y="-6.14281186005"/>
      <point x="358.508021945" y="43.147050999"/>
    </contour>
  </outline>
</glyph>
<glyph name="T" format="1">
  <advance width="421.86739336"/>
  <unicode hex="0054"/>
  <outline>
    <contour>
      <point x="210.93369668" y="513.759988403" type="move" name="top"/>
    </contour>
    <contour>
      <point x="210.93369668" y="267.459394027" type="move" name="center"/>
    </contour>
    <contour>
      <point x="210.93369668" y="0.0" type="move" name="bottom"/>
    </contour>
    <contour>
      <point x="226.997812913" y="0.0" type="line"/>
      <point x="226.997812913" y="469.051377607" type="line"/>
      <point x="417.013919254" y="469.051377607" type="line"/>
      <point x="417.013919254" y="500.239988708" type="line"/>
      <point x="4.85347410602" y="500.239988708" type="line"/>
      <point x="4.85347410602" y="469.051377607" type="line"/>
      <point x="194.869580448" y="469.051377607" type="line"/>
      <point x="194.869580448" y="0.0" type="line"/>
    </contour>
  </outline>
</glyph>
<glyph name="U" format="1">
  <advance width="521.880233675"/>
  <unicode hex="0055"/>
  <outline>
    <contour>
      <point x="261.344853845" y="513.759988403" type="move" name="top"/>
    </contour>
    <contour>
      <point x="314.96222899" y="1.23437597472" type="move" name="ogonek"/>
    </contour>
    <contour>
      <point x="424.293793673" y="500.239988708" type="move" name="topright"/>
    </contour>
    <contour>
      <point x="261.344853845" y="0.0" type="move" name="bottom"/>
    </contour>
    <contour>
      <point x="455.612552123" y="195.071963514" type="curve" smooth="yes"/>
      <point x="455.612552123" y="500.239988708" type="line"/>
      <point x="424.293793673" y="500.239988708" type="line"/>
      <point x="424.293793673" y="190.868595627" type="line" smooth="yes"/>
      <point x="424.293793673" y="74.3343101597"/>
      <point x="372.492848459" y="25.2810472308"/>
      <point x="261.344853845" y="25.2810472308" type="curve" smooth="yes"/>
      <point x="150.196859231" y="25.2810472308"/>
      <point x="98.3959140168" y="74.3343101597"/>
      <point x="98.3959140168" y="190.868595627" type="curve" smooth="yes"/>
      <point x="98.3959140168" y="500.239988708" type="line"/>
      <point x="66.2676815517" y="500.239988708" type="line"/>
      <point x="66.2676815517" y="195.071963514" type="line" smooth="yes"/>
      <point x="66.2676815517" y="54.7573507047"/>
      <point x="128.998210951" y="-6.14281186005"/>
      <point x="261.344853845" y="-6.14281186005" type="curve" smooth="yes"/>
      <point x="393.465706739" y="-6.14281186005"/>
      <point x="455.612552123" y="54.7573507047"/>
    </contour>
  </outline>
</glyph>
<glyph name="V" format="1">
  <advance width="473.726976497"/>
  <unicode hex="0056"/>
  <outline>
    <contour>
      <point x="259.408451568" y="0.0" type="line"/>
      <point x="467.977082358" y="500.239988708" type="line"/>
      <point x="434.771797861" y="500.239988708" type="line"/>
      <point x="234.297907216" y="18.1073354907" type="line"/>
      <point x="241.857491325" y="18.1073354907" type="line"/>
      <point x="40.9805486629" y="500.239988708" type="line"/>
      <point x="5.74989413917" y="500.239988708" type="line"/>
      <point x="214.318524929" y="0.0" type="line"/>
    </contour>
  </outline>
</glyph>
<glyph name="W" format="1">
  <advance width="771.919411163"/>
  <unicode hex="0057"/>
  <outline>
    <contour>
      <point x="386.274126589" y="513.759988403" type="move" name="top"/>
    </contour>
    <contour>
      <point x="386.274126589" y="0.0" type="move" name="bottom"/>
    </contour>
    <contour>
      <point x="230.913078967" y="0.0" type="line"/>
      <point x="390.415182642" y="478.869601319" type="line"/>
      <point x="381.191492504" y="478.869601319" type="line"/>
      <point x="541.006332197" y="0.0" type="line"/>
      <point x="584.109306847" y="0.0" type="line"/>
      <point x="746.897834561" y="500.239988708" type="line"/>
      <point x="714.682656077" y="500.239988708" type="line"/>
      <point x="558.866658476" y="19.2835754384" type="line"/>
      <point x="565.974662588" y="19.2835754384" type="line"/>
      <point x="406.878980911" y="500.239988708" type="line"/>
      <point x="365.582326249" y="500.239988708" type="line"/>
      <point x="206.70906459" y="19.2835754384" type="line"/>
      <point x="214.1331747" y="19.2835754384" type="line"/>
      <point x="58.4978090981" y="500.239988708" type="line"/>
      <point x="24.3927345869" y="500.239988708" type="line"/>
      <point x="187.810104316" y="0.0" type="line"/>
    </contour>
  </outline>
</glyph>
<glyph name="X" format="1">
  <advance width="462.210338315"/>
  <unicode hex="0058"/>
  <outline>
    <contour>
      <point x="453.145712042" y="0.0" type="line"/>
      <point x="250.542655447" y="253.823798249" type="line"/>
      <point x="231.150327157" y="279.42729751" type="line"/>
      <point x="52.8833889581" y="500.239988708" type="line"/>
      <point x="12.6637863291" y="500.239988708" type="line"/>
      <point x="210.903366853" y="252.971362272" type="line"/>
      <point x="230.295695143" y="227.367863011" type="line"/>
      <point x="412.926109413" y="0.0" type="line"/>
    </contour>
    <contour>
      <point x="47.7104388731" y="0.0" type="line"/>
      <point x="230.295695143" y="227.367863011" type="line"/>
      <point x="250.542655447" y="253.823798249" type="line"/>
      <point x="448.556445972" y="500.239988708" type="line"/>
      <point x="410.000949372" y="500.239988708" type="line"/>
      <point x="231.150327157" y="279.42729751" type="line"/>
      <point x="210.903366853" y="252.971362272" type="line"/>
      <point x="8.48094225756" y="0.0" type="line"/>
    </contour>
  </outline>
</glyph>
<glyph name="Y" format="1">
  <advance width="421.86739336"/>
  <unicode hex="0059"/>
  <outline>
    <contour>
      <point x="3.37000007629" y="500.239988708" type="move" name="topleft"/>
    </contour>
    <contour>
      <point x="210.88853868" y="513.759988403" type="move" name="top"/>
    </contour>
    <contour>
      <point x="210.88853868" y="0.0" type="move" name="bottom"/>
    </contour>
    <contour>
      <point x="227.088128912" y="0.0" type="line"/>
      <point x="227.088128912" y="240.686414522" type="line"/>
      <point x="218.722440769" y="214.906479269" type="line"/>
      <point x="427.217605464" y="500.239988708" type="line"/>
      <point x="390.239268873" y="500.239988708" type="line"/>
      <point x="204.054852548" y="246.595330333" type="line"/>
      <point x="219.612120841" y="246.595330333" type="line"/>
      <point x="30.6865464543" y="500.239988708" type="line"/>
      <point x="-8.31716016258" y="500.239988708" type="line"/>
      <point x="203.32558459" y="214.906479269" type="line"/>
      <point x="194.959896447" y="240.862850514" type="line"/>
      <point x="194.959896447" y="0.0" type="line"/>
    </contour>
  </outline>
</glyph>
<glyph name="Z" format="1">
  <advance width="424.51149546"/>
  <unicode hex="005A"/>
  <outline>
    <contour>
      <point x="212.27832673" y="513.759988403" type="move" name="top"/>
    </contour>
    <contour>
      <point x="212.27832673" y="0.0" type="move" name="bottom"/>
    </contour>
    <contour>
      <point x="402.537072974" y="0.0" type="line"/>
      <point x="402.537072974" y="30.571423114" type="line"/>
      <point x="56.2668689576" y="30.571423114" type="line"/>
      <point x="60.0399210507" y="20.5774393808" type="line"/>
      <point x="397.909388867" y="480.427105294" type="line"/>
      <point x="397.909388867" y="500.239988708" type="line"/>
      <point x="26.6021065933" y="500.239988708" type="line"/>
      <point x="26.6021065933" y="469.668565595" type="line"/>
      <point x="363.616942395" y="469.668565595" type="line"/>
      <point x="359.843890302" y="479.662549328" type="line"/>
      <point x="21.9744224859" y="19.8128834148" type="line"/>
      <point x="21.9744224859" y="0.0" type="line"/>
    </contour>
  </outline>
</glyph>
<glyph name="a" format="1">
  <advance width="374.232442314"/>
  <unicode hex="0061"/>
  <outline>
    <contour>
      <point x="186.082642134" y="405.599990845" type="move" name="top"/>
    </contour>
    <contour>
      <point x="317.758654993" y="0.0" type="move" name="ogonek"/>
    </contour>
    <contour>
      <point x="193.628746321" y="0.0" type="move" name="bottom"/>
    </contour>
    <contour>
      <point x="284.692214476" y="43.9981350352" type="curve"/>
      <point x="287.659162535" y="43.9981350352" type="line"/>
      <point x="290.223058578" y="0.0" type="line"/>
      <point x="317.758654993" y="0.0" type="line"/>
      <point x="317.758654993" y="244.621410584" type="line" smooth="yes"/>
      <point x="317.758654993" y="341.232624316"/>
      <point x="266.440967853" y="371.094923609"/>
      <point x="176.282007942" y="371.094923609" type="curve" smooth="yes"/>
      <point x="138.895901105" y="371.094923609"/>
      <point x="96.2047401639" y="365.069735744"/>
      <point x="63.5784214522" y="352.901736019" type="curve"/>
      <point x="63.5784214522" y="322.44861287" type="line"/>
      <point x="103.118632354" y="336.291740565"/>
      <point x="143.336213251" y="341.082552456"/>
      <point x="175.014213969" y="341.082552456" type="curve" smooth="yes"/>
      <point x="246.367899587" y="341.082552456"/>
      <point x="286.127160525" y="321.772612885"/>
      <point x="286.127160525" y="245.180462544" type="curve" smooth="yes"/>
      <point x="286.127160525" y="76.2129142243" type="line"/>
      <point x="252.433899724" y="41.003454961"/>
      <point x="208.453376675" y="23.5457553228"/>
      <point x="162.812117579" y="23.5457553228" type="curve" smooth="yes"/>
      <point x="102.433174147" y="23.5457553228"/>
      <point x="75.1186495001" y="50.40864275"/>
      <point x="75.1186495001" y="94.3472898175" type="curve" smooth="yes"/>
      <point x="75.1186495001" y="137.169184905"/>
      <point x="102.926542163" y="160.387756405"/>
      <point x="176.917589919" y="169.204824221" type="curve" smooth="yes"/>
      <point x="300.784638804" y="183.811831912" type="line"/>
      <point x="301.048846841" y="210.765979201" type="line"/>
      <point x="176.64327194" y="196.15897151" type="line" smooth="yes"/>
      <point x="80.5187378332" y="185.019843754"/>
      <point x="41.510312986" y="152.483288505"/>
      <point x="41.510312986" y="91.8778618978" type="curve" smooth="yes"/>
      <point x="41.510312986" y="31.4198032689"/>
      <point x="84.3335779452" y="-5.58443587008"/>
      <point x="159.380109599" y="-5.58443587008" type="curve" smooth="yes"/>
      <point x="209.343056747" y="-5.58443587008"/>
      <point x="257.14852985" y="14.4893836962"/>
    </contour>
  </outline>
</glyph>
<glyph name="o" format="1">
  <advance width="407.755181059"/>
  <unicode hex="006F"/>
  <outline>
    <contour>
      <point x="203.877590529" y="405.599990845" type="move" name="top"/>
    </contour>
    <contour>
      <point x="254.524647635" y="0.0" type="move" name="ogonek"/>
    </contour>
    <contour>
      <point x="247.3128476" y="365.628111734" type="move" name="topright"/>
    </contour>
    <contour>
      <point x="203.877590529" y="182.814055867" type="move" name="center"/>
    </contour>
    <contour>
      <point x="203.877590529" y="0.0" type="move" name="bottom"/>
    </contour>
    <contour>
      <point x="367.950762121" y="182.814055867" type="curve" smooth="yes"/>
      <point x="367.950762121" y="314.868624911"/>
      <point x="302.746652678" y="371.094923609"/>
      <point x="203.877590529" y="371.094923609" type="curve" smooth="yes"/>
      <point x="106.266212412" y="371.094923609"/>
      <point x="39.8044189384" y="312.399872961"/>
      <point x="39.8044189384" y="182.814055867" type="curve" smooth="yes"/>
      <point x="39.8044189384" y="50.7594868233"/>
      <point x="105.505266378" y="-6.20162385744"/>
      <point x="203.877590529" y="-6.20162385744" type="curve" smooth="yes"/>
      <point x="300.99223065" y="-6.20162385744"/>
      <point x="367.950762121" y="53.2282387727"/>
    </contour>
    <contour>
      <point x="72.7839134369" y="183.431243854" type="curve" smooth="yes"/>
      <point x="72.7839134369" y="297.202041415"/>
      <point x="124.088120654" y="340.494432482"/>
      <point x="203.877590529" y="340.494432482" type="curve" smooth="yes"/>
      <point x="283.667060405" y="340.494432482"/>
      <point x="334.971267622" y="297.202041415"/>
      <point x="334.971267622" y="182.19686788" type="curve" smooth="yes"/>
      <point x="334.971267622" y="68.4260703188"/>
      <point x="283.667060405" y="24.39886727"/>
      <point x="203.877590529" y="24.39886727" type="curve" smooth="yes"/>
      <point x="124.088120654" y="24.39886727"/>
      <point x="72.7839134369" y="68.4260703188"/>
    </contour>
  </outline>
</glyph>
<glyph name="AE" format="1">
  <advance width="667.442668837"/>
  <unicode hex="00C6"/>
  <outline>
    <contour>
      <point x="318.387497009" y="513.759988403" type="move" name="top"/>
    </contour>
    <contour>
      <point x="356.11801794" y="0.0" type="move" name="bottom"/>
    </contour>
    <contour>
      <point x="47.1752828379" y="0.0" type="line"/>
      <point x="246.652327508" y="469.286625597" type="line"/>
      <point x="313.217916905" y="469.286625597" type="line"/>
      <point x="314.475600936" y="500.239988708" type="line"/>
      <point x="226.492313223" y="500.239988708" type="line"/>
      <point x="13.5217883241" y="0.0" type="line"/>
    </contour>
    <contour>
      <point x="343.850543666" y="172.759232226" type="line"/>
      <point x="343.850543666" y="203.41853535" type="line"/>
      <point x="122.517700605" y="203.41853535" type="line"/>
      <point x="113.745590465" y="172.759232226" type="line"/>
    </contour>
    <contour>
      <point x="633.475090056" y="0.0" type="line"/>
      <point x="633.475090056" y="30.7769271196" type="line"/>
      <point x="373.540244146" y="30.7769271196" type="line"/>
      <point x="335.306245256" y="469.463061589" type="line"/>
      <point x="630.10508998" y="469.463061589" type="line"/>
      <point x="630.10508998" y="500.239988708" type="line"/>
      <point x="301.468748762" y="500.239988708" type="line"/>
      <point x="343.347065708" y="0.0" type="line"/>
    </contour>
    <contour>
      <point x="596.269615218" y="241.711906639" type="line"/>
      <point x="596.269615218" y="272.371209764" type="line"/>
      <point x="342.418967598" y="272.371209764" type="line"/>
      <point x="342.418967598" y="241.711906639" type="line"/>
    </contour>
  </outline>
</glyph>
<glyph name="Oslash" format="1">
  <advance width="533.125923859"/>
  <unicode hex="00D8"/>
  <outline>
    <contour>
      <point x="265.260119899" y="513.759988403" type="move" name="top"/>
    </contour>
    <contour>
      <point x="266.51780393" y="0.0" type="move" name="bottom"/>
    </contour>
    <component base="slashcomb.case" xOffset="-5.29494416101"/>
    <component base="O"/>
  </outline>
</glyph>
<glyph name="Thorn" format="1">
  <advance width="447.156547981"/>
  <unicode hex="00DE"/>
  <outline>
    <contour>
      <point x="101.046756078" y="0.0" type="line"/>
      <point x="101.046756078" y="94.3155179227" type="line"/>
      <point x="133.346858849" y="91.2295779859"/>
      <point x="158.326647433" y="89.9363900138"/>
      <point x="189.459382172" y="89.9363900138" type="curve" smooth="yes"/>
      <point x="345.288859696" y="89.9363900138"/>
      <point x="410.628443138" y="150.335636645"/>
      <point x="410.628443138" y="258.114370176" type="curve" smooth="yes"/>
      <point x="410.628443138" y="373.152667547"/>
      <point x="337.69759751" y="423.82359839"/>
      <point x="205.354324598" y="423.82359839" type="curve" smooth="yes"/>
      <point x="160.164645499" y="423.82359839"/>
      <point x="129.257700758" y="420.061658468"/>
      <point x="101.046756078" y="415.124154569" type="curve"/>
      <point x="101.046756078" y="500.857176696" type="line"/>
      <point x="68.918523613" y="500.857176696" type="line"/>
      <point x="68.918523613" y="0.0" type="line"/>
    </contour>
    <contour>
      <point x="101.046756078" y="125.621077048" type="curve"/>
      <point x="101.046756078" y="384.994159421" type="line"/>
      <point x="132.089174818" y="390.725287299"/>
      <point x="164.927803605" y="393.870039233"/>
      <point x="206.167168593" y="393.870039233" type="curve" smooth="yes"/>
      <point x="319.830531269" y="393.870039233"/>
      <point x="377.64894864" y="352.370400131"/>
      <point x="377.64894864" y="257.497182189" type="curve" smooth="yes"/>
      <point x="377.64894864" y="166.650220171"/>
      <point x="325.490109409" y="119.88994917"/>
      <point x="189.459382172" y="119.88994917" type="curve" smooth="yes"/>
      <point x="155.675805371" y="119.88994917"/>
      <point x="129.125596739" y="121.80032513"/>
    </contour>
  </outline>
</glyph>
<glyph name="OE" format="1">
  <advance width="755.136136916"/>
  <unicode hex="0152"/>
  <outline>
    <contour>
      <point x="419.877071391" y="513.759988403" type="move" name="top"/>
    </contour>
    <contour>
      <point x="419.877071391" y="0.0" type="move" name="bottom"/>
    </contour>
    <contour>
      <point x="436.462863736" y="0.0" type="curve" smooth="yes"/>
      <point x="721.168558135" y="0.0" type="line"/>
      <point x="721.168558135" y="30.7769271196" type="line"/>
      <point x="435.850871624" y="30.7769271196" type="line"/>
      <point x="435.850871624" y="469.463061589" type="line"/>
      <point x="717.798558059" y="469.463061589" type="line"/>
      <point x="717.798558059" y="500.239988708" type="line"/>
      <point x="430.174443581" y="500.239988708" type="line" smooth="yes"/>
      <point x="392.069178728" y="500.239988708"/>
      <point x="345.024651659" y="504.971988602"/>
      <point x="306.60665079" y="504.971988602" type="curve" smooth="yes"/>
      <point x="135.567689047" y="504.971988602"/>
      <point x="43.3550510137" y="420.384110498"/>
      <point x="43.3550510137" y="250.119994354" type="curve" smooth="yes"/>
      <point x="43.3550510137" y="79.2677582365"/>
      <point x="135.11610905" y="-3.49762391847"/>
      <point x="309.573598849" y="-3.49762391847" type="curve" smooth="yes"/>
      <point x="347.675493721" y="-3.49762391847"/>
      <point x="402.804650992" y="0.0"/>
    </contour>
    <contour>
      <point x="76.7861255095" y="250.002370359" type="curve" smooth="yes"/>
      <point x="76.7861255095" y="402.422791045"/>
      <point x="155.498543353" y="473.665753506"/>
      <point x="306.009486851" y="473.665753506" type="curve" smooth="yes"/>
      <point x="344.420747759" y="473.665753506"/>
      <point x="371.961062404" y="471.814189544"/>
      <point x="403.858113158" y="468.610625612" type="curve"/>
      <point x="403.858113158" y="31.6293630965" type="line"/>
      <point x="382.022534653" y="29.0429871523"/>
      <point x="351.067061931" y="27.8086111776"/>
      <point x="306.009486851" y="27.8086111776" type="curve" smooth="yes"/>
      <point x="155.498543353" y="27.8086111776"/>
      <point x="76.7861255095" y="97.8171976631"/>
    </contour>
    <contour>
      <point x="683.963083297" y="241.711906639" type="line"/>
      <point x="683.963083297" y="272.371209764" type="line"/>
      <point x="427.871385594" y="272.371209764" type="line"/>
      <point x="427.871385594" y="241.711906639" type="line"/>
    </contour>
  </outline>
</glyph>
<glyph name="Ohorn" format="1">
  <advance width="533.125923859"/>
  <unicode hex="01A0"/>
  <outline>
    <contour>
      <point x="266.562961929" y="513.759988403" type="move" name="top"/>
    </contour>
    <contour>
      <point x="266.562961929" y="0.0" type="move" name="bottom"/>
    </contour>
    <contour>
      <point x="489.770872845" y="250.119994354" type="curve" smooth="yes"/>
      <point x="489.770872845" y="369.565135707"/>
      <point x="449.33087193" y="442.749570051"/>
      <point x="385.297500499" y="478.489689232" type="curve"/>
      <point x="386.55518453" y="470.964457448" type="line"/>
      <point x="454.945292069" y="470.964457448"/>
      <point x="490.132136843" y="501.414200745"/>
      <point x="490.132136843" y="551.380739559" type="curve" smooth="yes"/>
      <point x="490.132136843" y="571.131431125"/>
      <point x="487.571610781" y="584.210678825"/>
      <point x="481.550768644" y="600.28798645" type="curve"/>
      <point x="454.251072169" y="600.28798645" type="line"/>
      <point x="459.507598292" y="584.151866827"/>
      <point x="462.69696637" y="570.69067913"/>
      <point x="462.69696637" y="552.350799531" type="curve" smooth="yes"/>
      <point x="462.69696637" y="515.552740368"/>
      <point x="436.591597774" y="497.771236759"/>
      <point x="388.602122691" y="497.771236759" type="curve" smooth="yes"/>
      <point x="337.384861493" y="497.771236759"/>
      <point x="306.912646845" y="506.382800569"/>
      <point x="266.562961929" y="506.382800569" type="curve" smooth="yes"/>
      <point x="136.238319082" y="506.382800569"/>
      <point x="43.3550510137" y="428.112818377"/>
      <point x="43.3550510137" y="250.119994354" type="curve" smooth="yes"/>
      <point x="43.3550510137" y="72.127170332"/>
      <point x="134.396951035" y="-6.14281186005"/>
      <point x="266.562961929" y="-6.14281186005" type="curve" smooth="yes"/>
      <point x="398.728972824" y="-6.14281186005"/>
      <point x="489.770872845" y="68.5416664026"/>
    </contour>
    <contour>
      <point x="76.8312835093" y="251.589618318" type="curve" smooth="yes"/>
      <point x="76.8312835093" y="411.445362866"/>
      <point x="154.150543323" y="474.57700148"/>
      <point x="266.562961929" y="474.57700148" type="curve" smooth="yes"/>
      <point x="378.975380536" y="474.57700148"/>
      <point x="456.294640349" y="411.268926874"/>
      <point x="456.294640349" y="248.65037039" type="curve" smooth="yes"/>
      <point x="456.294640349" y="88.9710618344"/>
      <point x="379.110854535" y="25.6629872286"/>
      <point x="266.562961929" y="25.6629872286" type="curve" smooth="yes"/>
      <point x="154.015069324" y="25.6629872286"/>
      <point x="76.8312835093" y="88.7946258423"/>
    </contour>
  </outline>
</glyph>
<glyph name="Uhorn" format="1">
  <advance width="521.880233675"/>
  <unicode hex="01AF"/>
  <outline>
    <contour>
      <point x="261.254537845" y="513.759988403" type="move" name="top"/>
    </contour>
    <contour>
      <point x="261.254537845" y="0.0" type="move" name="bottom"/>
    </contour>
    <contour>
      <point x="531.003497871" y="600.28798645" type="curve"/>
      <point x="503.703801397" y="600.28798645" type="line"/>
      <point x="508.96032752" y="584.151866827"/>
      <point x="512.149695597" y="570.69067913"/>
      <point x="512.149695597" y="552.350799531" type="curve" smooth="yes"/>
      <point x="512.149695597" y="515.552740368"/>
      <point x="486.044327001" y="500.239988708"/>
      <point x="438.054851918" y="500.239988708" type="curve" smooth="yes"/>
      <point x="424.293793673" y="500.239988708" type="line"/>
      <point x="424.293793673" y="190.868595627" type="line" smooth="yes"/>
      <point x="424.293793673" y="74.3343101597"/>
      <point x="372.492848459" y="25.2810472308"/>
      <point x="261.344853845" y="25.2810472308" type="curve" smooth="yes"/>
      <point x="150.196859231" y="25.2810472308"/>
      <point x="98.3959140168" y="74.3343101597"/>
      <point x="98.3959140168" y="190.868595627" type="curve" smooth="yes"/>
      <point x="98.3959140168" y="500.239988708" type="line"/>
      <point x="66.2676815517" y="500.239988708" type="line"/>
      <point x="66.2676815517" y="195.071963514" type="line" smooth="yes"/>
      <point x="66.2676815517" y="54.7573507047"/>
      <point x="128.998210951" y="-6.14281186005"/>
      <point x="261.344853845" y="-6.14281186005" type="curve" smooth="yes"/>
      <point x="393.465706739" y="-6.14281186005"/>
      <point x="455.612552123" y="54.7573507047"/>
      <point x="455.612552123" y="195.071963514" type="curve" smooth="yes"/>
      <point x="455.612552123" y="475.549765333" type="line"/>
      <point x="509.751603381" y="478.812817232"/>
      <point x="539.58486607" y="506.55856059"/>
      <point x="539.58486607" y="551.380739559" type="curve" smooth="yes"/>
      <point x="539.58486607" y="571.131431125"/>
      <point x="537.024340009" y="584.210678825"/>
    </contour>
  </outline>
</glyph>
<glyph name="Germandbls" format="1">
  <advance width="625.012345952"/>
  <outline>
    <contour>
      <point x="593.428031215" y="132.203288963" type="curve" smooth="yes"/>
      <point x="593.428031215" y="202.507963346"/>
      <point x="553.658660334" y="242.627210436"/>
      <point x="437.192131693" y="265.170457922" type="curve" smooth="yes"/>
      <point x="333.677187284" y="285.038773482"/>
      <point x="300.974032496" y="311.049224933"/>
      <point x="300.974032496" y="372.504383636" type="curve" smooth="yes"/>
      <point x="300.974032496" y="438.27985825"/>
      <point x="349.356449653" y="475.370625459"/>
      <point x="447.482763921" y="475.370625459" type="curve" smooth="yes"/>
      <point x="489.180448868" y="475.370625459"/>
      <point x="530.926661795" y="469.227813599"/>
      <point x="572.082450744" y="456.677873876" type="curve"/>
      <point x="572.082450744" y="488.483672965" type="line"/>
      <point x="533.980555873" y="500.298800706"/>
      <point x="491.247606913" y="506.382800569"/>
      <point x="448.243709955" y="506.382800569" type="curve" smooth="yes"/>
      <point x="327.851805318" y="506.382800569"/>
      <point x="267.859063999" y="453.801493767"/>
      <point x="267.859063999" y="370.681887687" type="curve" smooth="yes"/>
      <point x="267.859063999" y="295.175393402"/>
      <point x="310.682328958" y="257.377530283"/>
      <point x="427.190645617" y="234.070402802" type="curve" smooth="yes"/>
      <point x="527.338959931" y="214.319711236"/>
      <point x="560.313062717" y="189.308387771"/>
      <point x="560.313062717" y="130.58629702" type="curve" smooth="yes"/>
      <point x="560.313062717" y="61.607258474"/>
      <point x="510.989067527" y="24.8693632491"/>
      <point x="408.915809129" y="24.8693632491" type="curve" smooth="yes"/>
      <point x="369.733492244" y="24.8693632491"/>
      <point x="322.724013233" y="31.1886111013"/>
      <point x="274.421802133" y="47.2949867403" type="curve"/>
      <point x="274.421802133" y="15.4891876517" type="line"/>
      <point x="317.738435108" y="0.793623979507"/>
      <point x="365.95370019" y="-6.14281186005"/>
      <point x="408.377283113" y="-6.14281186005" type="curve" smooth="yes"/>
      <point x="526.695289743" y="-6.14281186005"/>
      <point x="593.428031215" y="43.147050999"/>
    </contour>
    <contour>
      <point x="101.046756078" y="0.0" type="line"/>
      <point x="101.046756078" y="311.665060979" type="line" smooth="yes"/>
      <point x="101.046756078" y="426.434986525"/>
      <point x="152.396121295" y="475.311813462"/>
      <point x="262.640955914" y="475.311813462" type="curve" smooth="yes"/>
      <point x="294.451060649" y="475.311813462"/>
      <point x="320.869165263" y="470.961753567"/>
      <point x="343.514217783" y="462.555693763" type="curve"/>
      <point x="373.325912339" y="482.604501138" type="line"/>
      <point x="344.653277719" y="499.034680747"/>
      <point x="308.028116916" y="506.382800569"/>
      <point x="262.640955914" y="506.382800569" type="curve" smooth="yes"/>
      <point x="131.694211012" y="506.382800569"/>
      <point x="68.918523613" y="445.835509988"/>
      <point x="68.918523613" y="306.932385116" type="curve" smooth="yes"/>
      <point x="68.918523613" y="0.0" type="line"/>
    </contour>
  </outline>
</glyph>
<glyph name="Schwa" format="1">
  <advance width="532.987079879"/>
  <outline>
    <contour>
      <point x="264.121059963" y="512.583748456" type="move" name="top"/>
    </contour>
    <contour>
      <point x="264.121059963" y="0.0" type="move" name="bottom"/>
    </contour>
    <contour>
      <point x="489.632028865" y="248.914686393" type="curve" smooth="yes"/>
      <point x="489.632028865" y="429.906246312"/>
      <point x="384.258866505" y="506.382800569"/>
      <point x="214.609692812" y="506.382800569" type="curve" smooth="yes"/>
      <point x="165.584953717" y="506.382800569"/>
      <point x="116.827792638" y="501.650800675"/>
      <point x="67.2645275267" y="488.483672965" type="curve"/>
      <point x="67.2645275267" y="456.677873876" type="line"/>
      <point x="115.837686625" y="469.845001587"/>
      <point x="170.792951859" y="475.253001465"/>
      <point x="214.470848832" y="475.253001465" type="curve" smooth="yes"/>
      <point x="365.30800827" y="475.253001465"/>
      <point x="456.562218367" y="412.209918832"/>
      <point x="456.562218367" y="248.062250416" type="curve" smooth="yes"/>
      <point x="456.562218367" y="87.0890779182"/>
      <point x="379.604222551" y="24.95724326"/>
      <point x="269.662014007" y="24.95724326" type="curve" smooth="yes"/>
      <point x="150.283805249" y="24.95724326"/>
      <point x="73.461283433" y="87.4419499025"/>
      <point x="73.461283433" y="248.062250416" type="curve"/>
      <point x="58.8004351731" y="236.509410767" type="line"/>
      <point x="468.839802583" y="236.509410767" type="line"/>
      <point x="468.839802583" y="266.345345929" type="line"/>
      <point x="39.9850509374" y="266.345345929" type="line"/>
      <point x="39.9850509374" y="243.948114481" type="line" smooth="yes"/>
      <point x="39.9850509374" y="68.4240424078"/>
      <point x="132.868319005" y="-6.14281186005"/>
      <point x="269.526540008" y="-6.14281186005" type="curve" smooth="yes"/>
      <point x="399.086866841" y="-6.14281186005"/>
      <point x="489.632028865" y="68.5416664026"/>
    </contour>
  </outline>
</glyph>
<glyph name="slashcomb.case" format="1">
  <advance width="542.270756189"/>
  <outline>
    <contour>
      <point x="271.85790609" y="250.119994354" type="move" name="_center"/>
    </contour>
    <contour>
      <point x="491.595390988" y="490.128380981" type="line"/>
      <point x="472.709910637" y="507.000664526" type="line"/>
      <point x="52.1204211928" y="10.1116077279" type="line"/>
      <point x="71.0059015432" y="-6.76067581774" type="line"/>
    </contour>
  </outline>
</glyph>
<glyph name="slashcomb" format="1">
  <advance width="530.16841226"/>
  <outline>
    <contour>
      <point x="265.08420613" y="182.814055867" type="move" name="_center"/>
    </contour>
    <contour>
      <point x="162.95904977" y="32.2715632754" type="line"/>
      <point x="173.614315977" y="47.086102883" type="line"/>
      <point x="374.762206637" y="302.963589248" type="line"/>
      <point x="385.869052841" y="317.190008882" type="line"/>
      <point x="416.789477505" y="357.045615938" type="line"/>
      <point x="398.129787153" y="373.212155515" type="line"/>
      <point x="367.209362489" y="333.356548459" type="line"/>
      <point x="356.554096283" y="318.542008851" type="line"/>
      <point x="155.406205622" y="62.6645224862" type="line"/>
      <point x="144.299359419" y="48.4381028525" type="line"/>
      <point x="113.378934754" y="8.58249579596" type="line"/>
      <point x="132.038625106" y="-7.58404378111" type="line"/>
    </contour>
  </outline>
</glyph>
<glyph name="slashshortcomb.case" format="1">
  <advance width="275.018966072"/>
  <outline>
    <contour>
      <point x="134.800003052" y="261.611994095" type="move" name="_slash"/>
    </contour>
    <contour>
      <point x="271.562019977" y="345.875392257" type="line"/>
      <point x="256.859383698" y="368.039403627" type="line"/>
      <point x="48.3271492149" y="211.325031162" type="line"/>
      <point x="63.0297854938" y="189.161019792" type="line"/>
    </contour>
  </outline>
</glyph>
<glyph name="slashshortcomb" format="1">
  <advance width="269.600006104"/>
  <outline>
    <contour>
      <point x="134.800003052" y="261.611994095" type="move" name="_slash"/>
    </contour>
    <contour>
      <point x="212.423910672" y="302.758761212" type="line"/>
      <point x="197.811590392" y="324.687524592" type="line"/>
      <point x="58.433779463" y="220.465226977" type="line"/>
      <point x="73.0460997424" y="198.536463597" type="line"/>
    </contour>
  </outline>
</glyph>
<glyph name="strokelongcomb.case" format="1">
  <advance width="532.170865903"/>
  <outline>
    <contour>
      <point x="268.039695997" y="367.74534364" type="move" name="_center"/>
    </contour>
    <contour>
      <point x="533.338233934" y="354.370684013" type="line"/>
      <point x="533.338233934" y="381.120003267" type="line"/>
      <point x="2.69600006104" y="381.120003267" type="line"/>
      <point x="2.69600006104" y="354.370684013" type="line"/>
    </contour>
  </outline>
</glyph>
<glyph name="strokeshortcomb.D" format="1">
  <advance width="410.631813119"/>
  <outline>
    <contour>
      <point x="145.751155372" y="365.628111734" type="move" name="_stroke"/>
    </contour>
    <contour>
      <point x="318.638225122" y="352.253452107" type="line"/>
      <point x="318.638225122" y="379.002771361" type="line"/>
      <point x="77.5969477734" y="379.002771361" type="line"/>
      <point x="77.5969477734" y="352.253452107" type="line"/>
    </contour>
  </outline>
</glyph>
<glyph name="strokeshortcomb.case" format="1">
  <advance width="346.844451572"/>
  <outline>
    <contour>
      <point x="173.918963783" y="365.03999176" type="move" name="_center"/>
    </contour>
    <contour>
      <point x="316.194974906" y="351.665332133" type="line"/>
      <point x="316.194974906" y="378.414651387" type="line"/>
      <point x="31.6429526598" y="378.414651387" type="line"/>
      <point x="31.6429526598" y="351.665332133" type="line"/>
    </contour>
  </outline>
</glyph>
<glyph name="strokeshortcomb.d" format="1">
  <advance width="410.631813119"/>
  <outline>
    <contour>
      <point x="214.392664507" y="365.628111734" type="move" name="_stroke"/>
    </contour>
    <contour>
      <point x="273.562451889" y="352.547512094" type="line"/>
      <point x="273.562451889" y="378.708711374" type="line"/>
      <point x="38.4348507737" y="378.708711374" type="line"/>
      <point x="38.4348507737" y="352.547512094" type="line"/>
    </contour>
  </outline>
</glyph>
<glyph name="strokeshortcomb.h" format="1">
  <advance width="410.631813119"/>
  <outline>
    <contour>
      <point x="196.961676608" y="365.628111734" type="move" name="_stroke"/>
    </contour>
    <contour>
      <point x="372.919490341" y="352.547512094" type="line"/>
      <point x="372.919490341" y="378.708711374" type="line"/>
      <point x="137.791889226" y="378.708711374" type="line"/>
      <point x="137.791889226" y="352.547512094" type="line"/>
    </contour>
  </outline>
</glyph>
<glyph name="strokeshortcomb.t" format="1">
  <advance width="410.631813119"/>
  <outline>
    <contour>
      <point x="196.961676608" y="365.628111734" type="move" name="_stroke"/>
    </contour>
    <contour>
      <point x="355.555902058" y="352.841572081" type="line"/>
      <point x="355.555902058" y="378.414651387" type="line"/>
      <point x="137.791889226" y="378.414651387" type="line"/>
      <point x="137.791889226" y="352.841572081" type="line"/>
    </contour>
  </outline>
</glyph>
